<svg width="20" height="21" viewBox="0 0 20 21" fill="none" xmlns="http://www.w3.org/2000/svg">
<g clip-path="url(#clip0_18_311)">
<path d="M7.79514 17.5074C8.38275 18.026 9.15462 18.3407 10 18.3407C10.8454 18.3407 11.6172 18.026 12.2048 17.5074M15 6.67407C15 5.34799 14.4732 4.07622 13.5355 3.13854C12.5978 2.20086 11.3261 1.67407 10 1.67407C8.67391 1.67407 7.40214 2.20086 6.46446 3.13854C5.52678 4.07622 5 5.34799 5 6.67407C5 9.24923 4.35039 11.0124 3.62472 12.1786C3.0126 13.1623 2.70654 13.6542 2.71777 13.7914C2.73019 13.9433 2.76238 14.0012 2.88481 14.0921C2.99538 14.1741 3.49382 14.1741 4.49071 14.1741H15.5093C16.5062 14.1741 17.0046 14.1741 17.1152 14.0921C17.2376 14.0012 17.2698 13.9433 17.2822 13.7914C17.2934 13.6542 16.9874 13.1623 16.3753 12.1786C15.6496 11.0124 15 9.24923 15 6.67407Z" stroke="black" stroke-width="2" stroke-linecap="round" stroke-linejoin="round"/>
</g>
<defs>
<clipPath id="clip0_18_311">
<rect width="20" height="20" fill="white" transform="translate(0 0.00732422)"/>
</clipPath>
</defs>
</svg>
